<?xml version="1.0" standalone="no"?>
<!DOCTYPE svg PUBLIC "-//W3C//DTD SVG 20010904//EN"
 "http://www.w3.org/TR/2001/REC-SVG-20010904/DTD/svg10.dtd">
<svg version="1.0" xmlns="http://www.w3.org/2000/svg"
 width="480.000000pt" height="480.000000pt" viewBox="0 0 480.000000 480.000000"
 preserveAspectRatio="xMidYMid meet">
<metadata>
Created by potrace 1.14, written by Peter Selinger 2001-2017
</metadata>
<g transform="translate(0.000000,480.000000) scale(0.100000,-0.100000)"
fill="#000000" stroke="none">
<path d="M2219 4676 c-2 -2 -31 -6 -64 -9 -331 -31 -683 -161 -890 -329 -184
-149 -304 -297 -402 -493 -54 -108 -87 -208 -117 -350 -21 -104 -24 -141 -21
-280 2 -88 6 -180 10 -205 10 -71 52 -268 74 -349 11 -41 19 -76 18 -78 -4 -3
-209 156 -220 171 -12 16 1 -218 19 -346 38 -281 108 -504 211 -679 36 -60 54
-84 113 -149 33 -35 105 -90 119 -90 6 0 11 -3 12 -7 0 -5 2 -15 3 -23 2 -8 6
-39 10 -68 15 -124 75 -313 130 -410 19 -34 37 -70 41 -81 3 -12 11 -21 16
-21 5 0 9 -5 9 -10 0 -10 70 -111 94 -136 6 -6 29 -31 51 -55 120 -130 276
-240 447 -314 45 -20 90 -44 98 -53 51 -60 176 -131 278 -158 56 -15 198 -20
250 -8 111 24 228 84 297 152 22 22 51 43 65 47 51 16 186 85 255 130 118 78
270 224 352 340 71 100 140 235 176 345 17 51 55 227 61 280 2 19 4 38 5 43 0
4 6 7 11 7 13 0 109 72 130 97 125 147 232 379 274 593 3 14 7 36 10 50 16 72
19 92 35 212 14 103 24 326 14 312 -8 -10 -117 -98 -187 -150 -35 -25 -39 -26
-34 -9 81 287 103 423 103 640 -1 151 -7 213 -31 315 -123 513 -514 903 -1054
1053 -102 29 -105 29 -255 53 -86 14 -505 30 -516 20z"/>
</g>
</svg>
